<svg xmlns="http://www.w3.org/2000/svg" viewBox="0 0 777 777" role="img" aria-labelledby="title desc">
  <title id="title">iCal Filter Proxy</title>
  <desc id="desc">A calendar icon with a filter funnel over the date grid.</desc>
  <defs>
    <linearGradient id="calendarBody" x1="92" y1="252" x2="665" y2="720" gradientUnits="userSpaceOnUse">
      <stop offset="0" stop-color="#fbfaf6"/>
      <stop offset="1" stop-color="#ece9df"/>
    </linearGradient>
    <linearGradient id="editMark" x1="242" y1="646" x2="292" y2="596" gradientUnits="userSpaceOnUse">
      <stop offset="0" stop-color="#fff8df"/>
      <stop offset="1" stop-color="#ffffff"/>
    </linearGradient>
    <linearGradient id="calendarHeader" x1="42" y1="92" x2="734" y2="254" gradientUnits="userSpaceOnUse">
      <stop offset="0" stop-color="#e5484d"/>
      <stop offset="1" stop-color="#c8212c"/>
    </linearGradient>
    <linearGradient id="binding" x1="196" y1="8" x2="196" y2="188" gradientUnits="userSpaceOnUse">
      <stop offset="0" stop-color="#d7dde4"/>
      <stop offset="1" stop-color="#8f9aa7"/>
    </linearGradient>
    <linearGradient id="funnel" x1="236" y1="197" x2="525" y2="489" gradientUnits="userSpaceOnUse">
      <stop offset="0" stop-color="#60a5fa"/>
      <stop offset="1" stop-color="#2563eb"/>
    </linearGradient>
    <linearGradient id="changedEvent" x1="216" y1="588" x2="304" y2="675" gradientUnits="userSpaceOnUse">
      <stop offset="0" stop-color="#e8bf63"/>
      <stop offset="1" stop-color="#d8952f"/>
    </linearGradient>
    <linearGradient id="removedEvent" x1="472" y1="588" x2="560" y2="675" gradientUnits="userSpaceOnUse">
      <stop offset="0" stop-color="#eeeae2"/>
      <stop offset="1" stop-color="#ded9d0"/>
    </linearGradient>
    <filter id="softShadow" x="-12%" y="-12%" width="124%" height="128%" color-interpolation-filters="sRGB">
      <feDropShadow dx="0" dy="10" stdDeviation="10" flood-color="#09111a" flood-opacity="0.18"/>
    </filter>
    <filter id="funnelShadow" x="-16%" y="-16%" width="132%" height="132%" color-interpolation-filters="sRGB">
      <feDropShadow dx="0" dy="8" stdDeviation="10" flood-color="#09111a" flood-opacity="0.36"/>
    </filter>
  </defs>

  <g filter="url(#softShadow)">
    <path fill="url(#calendarHeader)" d="M99 85h579c40 0 73 33 73 73v95H26v-95c0-40 33-73 73-73z"/>
    <rect x="26" y="253" width="725" height="17" fill="#9f1822"/>
    <path fill="url(#calendarBody)" d="M26 270h725v391c0 50-40 90-90 90H116c-50 0-90-40-90-90V270z"/>

    <circle cx="197" cy="169" r="40" fill="#7f111b" opacity="0.62"/>
    <circle cx="580" cy="169" r="40" fill="#7f111b" opacity="0.62"/>
    <rect x="166" y="8" width="62" height="190" rx="29" fill="url(#binding)"/>
    <rect x="549" y="8" width="62" height="190" rx="29" fill="url(#binding)"/>

    <g fill="#cbc7be" opacity="0.9">
      <rect x="89" y="330" width="88" height="90" rx="18"/>
      <rect x="216" y="330" width="88" height="90" rx="18"/>
      <rect x="344" y="330" width="88" height="90" rx="18"/>
      <rect x="472" y="330" width="88" height="90" rx="18"/>
      <rect x="600" y="330" width="88" height="90" rx="18"/>
      <rect x="89" y="458" width="88" height="89" rx="18"/>
      <rect x="216" y="458" width="88" height="89" rx="18"/>
      <rect x="344" y="458" width="88" height="89" rx="18"/>
      <rect x="472" y="458" width="88" height="89" rx="18"/>
      <rect x="600" y="458" width="88" height="89" rx="18"/>
      <rect x="89" y="586" width="88" height="89" rx="18"/>
      <rect x="344" y="586" width="88" height="89" rx="18"/>
      <rect x="472" y="586" width="88" height="89" rx="18"/>
      <rect x="600" y="586" width="88" height="89" rx="18"/>
    </g>

    <rect x="216" y="586" width="88" height="89" rx="18" fill="url(#changedEvent)"/>
    <g fill="#fff8df" opacity="0.92">
      <rect x="239" y="617" width="42" height="9"/>
      <rect x="239" y="636" width="31" height="9"/>
    </g>

    <rect x="472" y="330" width="88" height="90" rx="18" fill="url(#changedEvent)"/>
    <g fill="#fff8df" opacity="0.92">
      <rect x="495" y="361" width="42" height="9"/>
      <rect x="495" y="380" width="31" height="9"/>
    </g>

    <rect x="89" y="458" width="88" height="89" rx="18" fill="url(#removedEvent)" opacity="0.68"/>
    <path d="M108 527l50-50" stroke="#b4232d" stroke-width="13" stroke-linecap="round" opacity="0.9"/>

    <rect x="600" y="458" width="88" height="89" rx="18" fill="url(#removedEvent)" opacity="0.68"/>
    <path d="M619 527l50-50" stroke="#b4232d" stroke-width="13" stroke-linecap="round" opacity="0.9"/>

    <rect x="472" y="586" width="88" height="89" rx="18" fill="url(#removedEvent)" opacity="0.68"/>
    <path d="M491 655l50-50" stroke="#b4232d" stroke-width="13" stroke-linecap="round" opacity="0.9"/>
  </g>

  <path filter="url(#funnelShadow)" fill="url(#funnel)" d="M282 108h213c5 0 9 3 11 8 2 4 1 9-3 13l-82 88v102c0 4-2 7-6 9l-43 21c-3 2-7 1-10-1-3-2-5-5-5-9V217l-98-88c-4-4-5-9-3-13 2-5 6-8 26-8z"/>
</svg>
